<svg version="1.1" xmlns="http://www.w3.org/2000/svg" xmlns:xlink="http://www.w3.org/1999/xlink" width="30.22436" height="69.87836" viewBox="0,0,30.22436,69.87836"><defs><linearGradient x1="224.88782" y1="180.00117" x2="255.1125" y2="180.00117" gradientUnits="userSpaceOnUse" id="color-1"><stop offset="0" stop-color="#d1d2d3"/><stop offset="1" stop-color="#a4a5a8"/></linearGradient></defs><g transform="translate(-224.88782,-145.06082)"><g data-paper-data="{&quot;isPaintingLayer&quot;:true}" fill-rule="nonzero" stroke="none" stroke-linecap="butt" stroke-linejoin="miter" stroke-miterlimit="10" stroke-dasharray="" stroke-dashoffset="0" style="mix-blend-mode: normal"><path d="M255.11218,152.64267v54.71611c0,4.18017 -0.83558,7.58039 -1.86398,7.58039h-26.49676c-1.02732,0 -1.86362,-3.40022 -1.86362,-7.58039v-54.71757c0,-4.18017 0.83629,-7.58039 1.86362,-7.58039h26.49676c1.0284,0 1.86398,3.40168 1.86398,7.58185z" fill="url(#color-1)" stroke-width="1"/><path d="M235,165.5c0,-2.76142 2.23858,-5 5,-5c2.76142,0 5,2.23858 5,5c0,2.76142 -2.23858,5 -5,5c-2.76142,0 -5,-2.23858 -5,-5z" fill="#000000" stroke-width="0.5"/><path d="M235,180.5c0,-2.76142 2.23858,-5 5,-5c2.76142,0 5,2.23858 5,5c0,2.76142 -2.23858,5 -5,5c-2.76142,0 -5,-2.23858 -5,-5z" fill="#000000" stroke-width="0.5"/><path d="M235,194.5c0,-2.76142 2.23858,-5 5,-5c2.76142,0 5,2.23858 5,5c0,2.76142 -2.23858,5 -5,5c-2.76142,0 -5,-2.23858 -5,-5z" fill="#000000" stroke-width="0.5"/></g></g></svg>